<?xml version="1.0" standalone="no"?><!DOCTYPE svg PUBLIC "-//W3C//DTD SVG 1.1//EN" "http://www.w3.org/Graphics/SVG/1.1/DTD/svg11.dtd"><svg t="1491443258184" class="icon" style="" viewBox="0 0 1024 1024" version="1.1" xmlns="http://www.w3.org/2000/svg" p-id="2364" xmlns:xlink="http://www.w3.org/1999/xlink" width="32" height="32"><defs><style type="text/css"></style></defs><path d="M196.93377 995.147541l0-51.976393 13.366557 0c33.022951 0 47.963279-11.666885 53.46623-40.309508 3.142295-15.91082 3.92918-25.458361 3.92918-74.250492l0-184.561311c0-63.643279 6.289836-91.220984 26.733115-116.679344 11.792787-13.791475 18.869508-18.030164 36.957377-25.458361-51.11082-26.518033-63.690492-56.215082-63.690492-143.192131L267.695738 174.16918c0-50.911475-0.786885-58.339672-3.92918-74.250492-1.57377-8.487869-4.716066-16.970492-9.437377-23.33377-8.650492-12.726557-19.656393-16.970492-44.034098-16.970492l-13.366557 0L196.928525 7.638033l22.803934 0c51.11082 0 81.773115 28.637377 91.210492 82.733115 4.716066 24.398689 5.502951 40.304262 5.502951 89.096393l0 5.303607-0.786885 177.138361c0 61.523934 4.716066 82.733115 22.803934 96.52459 11.792787 9.547541 20.443279 12.726557 44.034098 15.91082l0 54.095738c-33.809836 4.243934-50.323934 13.791475-58.974426 35.000656-6.289836 14.851148-7.863607 35.005902-7.863607 77.434754l0.786885 176.073443 0 6.363279c0 47.732459-1.57377 64.702951-5.502951 88.036721-3.142295 16.970492-9.437377 32.881311-17.295738 45.607869-16.514098 26.518033-37.744262 35.005902-73.909508 37.125246L196.93377 995.147541z" p-id="2365"></path></svg>